<?xml version="1.0" encoding="utf-8"?>
<!-- Generator: Adobe Illustrator 21.0.2, SVG Export Plug-In . SVG Version: 6.00 Build 0)  -->
<svg version="1.1" id="Layer_1" xmlns="http://www.w3.org/2000/svg" xmlns:xlink="http://www.w3.org/1999/xlink" x="0px" y="0px"
	 viewBox="0 0 600 300" style="enable-background:new 0 0 600 300;" xml:space="preserve">
<style type="text/css">
	.st0{fill:#D8AC24;}
	.st1{fill:#FFFFFF;}
	.st2{fill:#666666;}
</style>
<rect x="5.9" y="86.5" class="st0" width="157.5" height="157.5"/>
<path class="st1" d="M114.3,108.4c-11.4-0.3-21.5,1.8-30.3,6.3c-8.4-4.6-17.8-7.1-28.4-7.3c-1,0-2.1-0.1-3.1,0
	c-12.3,0.1-22.8,2.2-31.1,6.1l0.2,13.9c9.1-5.6,20-8.5,32.5-8.7c6.9-0.1,13.3,1,18.9,3.5c-0.4,0.4-0.9,0.8-1.4,1.3
	c-10.6,9.6-16.4,22-17.5,37l-34.3,0.5l0.8,48.6c11.5,5.9,24.3,8.8,38.3,8.7c8.7-0.1,16.4-1.7,23.3-4.5c7.3,3.5,15.6,5.2,24.9,5.5
	c13.9,0.3,26.7-2.4,38.3-8.2l1.2-48.6l-34.2-0.8c-0.7-15.6-6.5-28.6-17.3-38.6c-0.1-0.1-0.2-0.1-0.4-0.3c5.4-2,11.3-3,17.8-2.8
	c12.5,0.3,23.4,3.2,32.5,9.1l0.2-14.1C137.1,110.9,126.7,108.7,114.3,108.4L114.3,108.4z M83.8,129c0.7,0.6,1.4,1.2,2,1.8
	c8.3,8.1,12.5,18.8,12.8,31.9c0.2,13.6-3.3,24.2-10.7,32.1c-1.5,1.7-3.2,3-5,4.4c-1.5-1.2-2.7-2.4-4.1-3.7
	c-7.4-8-10.9-18.7-10.6-32.2c0.2-13.1,4.6-23.7,12.9-31.8C81.9,130.5,82.9,129.7,83.8,129L83.8,129z M133,173.3l-0.7,30
	c-6.6,3.2-14.2,4.6-23.2,4.4c-5.1-0.1-9.8-0.9-14.1-2.1c1-0.9,2-1.8,3.2-2.8c7.9-8,12.5-18.1,13.8-29.9L133,173.3z M54.3,171.7
	c1.2,12.6,5.7,23.2,13.9,31.6c0.6,0.6,1.2,1.2,1.9,1.8c-3.9,1.1-8.2,1.6-12.8,1.7c-8.9,0.1-16.6-1.3-23.2-4.8l-0.5-30L54.3,171.7z"
	/>
<path class="st2" d="M195,218.8V133h-13.3v-11.6h39.1V133h-13.1v85.9L195,218.8L195,218.8z"/>
<path class="st2" d="M288.3,218.8c-1-10.2-1.9-19-2.7-26.2c-0.8-7.3-1.5-13.5-2-18.5s-0.8-9.2-1.2-12.3c-0.3-3.2-0.5-5.8-0.7-7.7
	c-0.1-2-0.4-3.5-0.4-4.7c-0.1-1.2-0.1-2.2-0.1-3.1h-1c0,0.9-0.1,2-0.1,3.1c-0.1,1.2-0.2,2.7-0.4,4.7c-0.1,2-0.5,4.5-0.8,7.7
	c-0.3,3.2-0.7,7.3-1.2,12.3s-1.2,11.2-2,18.5s-1.7,16-2.7,26.2h-18.2l-8.5-97.4h12.5c0.8,11.7,1.5,21.8,2.2,30.3
	c0.6,8.3,1,15.4,1.5,21.1c0.5,5.8,0.8,10.4,1,13.9c0.3,3.5,0.5,6.3,0.6,8.5c0.1,2,0.4,3.6,0.4,4.7c0.1,1.2,0.1,2.1,0.1,2.9h1.2
	c0-0.9,0.1-1.8,0.1-2.9c0.1-1.2,0.2-2.7,0.4-4.7c0.3-2.2,0.6-5,1-8.5c0.5-3.5,1-8.2,1.5-13.9c0.7-5.8,1.5-12.8,2.4-21.1
	c1-8.3,2.2-18.4,3.5-30.3h12.5c1.3,11.7,2.4,21.8,3.4,30.3c1,8.3,1.9,15.4,2.6,21.1c0.7,5.8,1.2,10.4,1.5,13.9
	c0.5,3.5,0.8,6.3,1,8.5c0.3,2,0.4,3.6,0.4,4.7c0.1,1.2,0.1,2.1,0.3,2.9h1.2c0-0.9,0-1.8,0-2.9c0.1-1.2,0.1-2.7,0.3-4.7
	c0.1-2.2,0.4-5,0.6-8.5c0.3-3.5,0.6-8.2,1-13.9c0.4-5.8,0.8-12.8,1.5-21.1c0.7-8.3,1.5-18.4,2.3-30.3h12l-8.3,97.4L288.3,218.8
	L288.3,218.8z"/>
<path class="st2" d="M345.5,212.5c-0.7-1.5-1.2-3.1-1.7-4.7c-0.5-1.8-0.8-4.2-1.2-7.2c-0.3-3-0.5-6.9-0.7-11.7
	c-0.1-4.9-0.1-11.2-0.1-18.8c0-7.7,0.1-13.9,0.1-18.7c0.1-4.8,0.4-8.7,0.7-11.7s0.7-5.4,1.2-7.1c0.5-1.7,1-3.4,1.7-4.9
	c1.3-3,3.2-5,5.7-6.2c2.4-1.2,6.1-1.8,10.9-1.8s8.5,0.6,10.9,1.8s4.4,3.2,5.7,6.2c0.7,1.5,1.2,3.2,1.7,4.9s0.8,4.1,1.2,7.1
	c0.3,3,0.5,6.9,0.6,11.7s0.3,11,0.3,18.7s-0.1,13.9-0.3,18.8c-0.1,4.8-0.3,8.7-0.6,11.7c-0.3,3-0.7,5.4-1.2,7.2
	c-0.5,1.7-1,3.3-1.7,4.7c-1.3,3-3.2,5.1-5.7,6.3c-2.4,1.2-6.1,1.7-10.9,1.7s-8.5-0.6-10.9-1.7C348.7,217.6,346.8,215.5,345.5,212.5
	L345.5,212.5z M368.1,204.3c0.3-1,0.5-2.2,0.7-3.4c0.1-1.2,0.4-2.9,0.4-5.2c0.1-2.4,0.4-5.6,0.4-9.6c0.1-4,0.1-9.5,0.1-16.2
	c0-6.8-0.1-12.2-0.1-16.2c0-4.2-0.1-7.4-0.3-9.6c-0.1-2.4-0.2-4.2-0.4-5.2c-0.1-1.2-0.4-2.3-0.7-3.4c-0.5-1.5-1.2-2.6-2.2-3.2
	c-0.8-0.7-2.2-1-4.1-1s-3.3,0.4-4.1,1c-0.8,0.6-1.5,1.7-2,3.1c-0.3,1-0.6,2.2-0.8,3.4c-0.1,1.2-0.4,3-0.6,5.4
	c-0.1,2.3-0.1,5.5-0.3,9.6c0,4,0,9.5,0,16.2s0,12.2,0,16.2c0.1,4,0.1,7.2,0.3,9.6c0.1,2.3,0.4,4.1,0.6,5.2c0.3,1.2,0.6,2.3,0.8,3.4
	c0.5,1.5,1.2,2.6,2,3.2s2.2,0.9,4.1,0.9s3.3-0.3,4.1-0.9C367,206.8,367.6,205.8,368.1,204.3L368.1,204.3z"/>
<path class="st0" d="M431.6,175.8v-11h22.2c0.1,1.7,0.1,3.7,0.1,6.3c0.1,2.6,0.1,5.8,0.1,9.6c0,5.3-0.1,9.8-0.3,13.3
	c-0.1,3.5-0.4,6.4-0.7,8.7c-0.3,2.3-0.7,4.2-1.2,5.7c-0.4,1.5-0.8,2.8-1.5,4.2c-1.3,3-3.2,5.1-5.7,6.3c-2.5,1.2-6.1,1.7-10.9,1.7
	s-8.5-0.6-10.9-1.7c-2.5-1.2-4.4-3.3-5.7-6.3c-0.7-1.5-1.2-3.1-1.7-4.7c-0.5-1.8-0.8-4.2-1.2-7.4c-0.3-3.1-0.5-7.1-0.7-12
	c-0.1-4.9-0.1-11.3-0.1-19.2c0-7.5,0.1-13.7,0.1-18.4c0.1-4.7,0.4-8.5,0.7-11.4c0.3-3,0.7-5.3,1.2-7s1-3.1,1.5-4.4
	c1.5-3.3,3.4-5.5,5.8-6.6c2.6-1.2,6.2-1.8,10.9-1.8c5.3,0,9.2,0.7,11.6,2.2s4.2,3.5,5.2,6.2c1.2,2.9,2,5.9,2.3,9s0.4,6.1,0.4,9
	c0,1.3,0,2.3,0,2.9s-0.1,1.4-0.1,2h-11.7c0.1-0.6,0.1-1.2,0.1-1.9c0-0.8,0-1.8,0-3.1c0-1.7-0.1-3.3-0.3-4.9
	c-0.1-1.7-0.4-3.6-0.8-5.5c-0.4-1.5-1-2.6-2-3.4c-0.8-0.9-2.4-1.3-4.5-1.3c-1.9,0-3.3,0.4-4.2,1s-1.7,1.9-2.1,3.7
	c-0.3,0.9-0.5,1.9-0.7,3.1c-0.1,1.2-0.4,2.9-0.6,5.2c-0.1,2.4-0.1,5.5-0.3,9.5c-0.1,3.9-0.1,9.1-0.1,15.5c0,6.7,0.1,12.1,0.1,16.2
	c0.1,4.2,0.2,7.4,0.4,9.9c0.1,2.4,0.4,4.2,0.6,5.5c0.3,1.2,0.6,2.3,0.8,3.4c0.5,1.7,1.1,2.8,1.8,3.4c0.8,0.6,2.4,0.9,4.5,0.9
	c1.9,0,3.3-0.3,4.2-0.9c0.9-0.7,1.7-1.8,2.1-3.4c0.3-0.9,0.5-2,0.7-3.1c0.3-1.2,0.5-2.6,0.6-4.2c0.1-1.7,0.4-3.6,0.4-5.8
	c0.1-2.2,0.1-4.9,0.1-8c0-2,0-3.5,0-4.7s-0.1-2-0.1-2.8L431.6,175.8L431.6,175.8z"/>
<path class="st0" d="M509.2,218.8l-2.4-26.5h-11.4l-2.4,26.5h-12.5l10.6-97.4h21.2l9.9,97.4H509.2z M502.9,144.5
	c-0.1-2-0.4-3.9-0.6-5.8c-0.1-1.9-0.4-3.8-0.6-5.8h-1c-0.1,2-0.4,3.9-0.6,5.8c-0.1,1.9-0.4,3.8-0.6,5.8l-3.7,36.5h10.3L502.9,144.5z
	"/>
<path class="st0" d="M550,218.8v-97.5h22.2c3.4,0,6.2,0.5,8.3,1.5c2.2,1,3.9,2.8,5.2,5.2c1.3,2.5,2.2,5.8,2.7,10.1
	c0.6,4.2,0.8,9.3,0.8,15.6c0,6.2-0.3,11.4-0.8,15.7c-0.5,4.2-1.4,7.7-2.7,10.4c-1.2,2.6-3,4.4-5.2,5.7c-2.3,1.2-5.1,1.8-8.5,1.8
	h-9.6v31.5H550z M570,175.9c1.2,0,2.1-0.4,2.8-1c0.8-0.7,1.5-1.8,2.1-3.4c0.6-1.7,1-4,1.2-6.8c0.3-2.9,0.4-6.6,0.4-11.1
	c0-4.4-0.1-7.9-0.4-10.7c-0.3-2.8-0.7-4.9-1.2-6.3c-0.5-1.4-1.2-2.4-2.1-2.9c-0.8-0.5-1.8-0.8-3-0.8h-7.5V176L570,175.9L570,175.9z"
	/>
</svg>
